<svg width="21" height="20" viewBox="0 0 21 20" fill="none" xmlns="http://www.w3.org/2000/svg">
<path d="M15.5 6.66669C15.5 5.3406 14.9732 4.06883 14.0355 3.13115C13.0979 2.19347 11.8261 1.66669 10.5 1.66669C9.17392 1.66669 7.90215 2.19347 6.96447 3.13115C6.02678 4.06883 5.5 5.3406 5.5 6.66669C5.5 12.5 3 14.1667 3 14.1667H18C18 14.1667 15.5 12.5 15.5 6.66669Z" stroke="#0E1726" stroke-width="1.5" stroke-linecap="round" stroke-linejoin="round"/>
<path d="M11.9419 17.5C11.7954 17.7526 11.5851 17.9622 11.3321 18.1079C11.0791 18.2537 10.7922 18.3304 10.5003 18.3304C10.2083 18.3304 9.92142 18.2537 9.6684 18.1079C9.41539 17.9622 9.2051 17.7526 9.05859 17.5" stroke="#0E1726" stroke-width="1.5" stroke-linecap="round" stroke-linejoin="round"/>
</svg>
