<svg width="24" height="24" viewBox="0 0 24 24" fill="none" xmlns="http://www.w3.org/2000/svg">
<rect x="0.5" y="0.5" width="23" height="23" rx="3.5" fill="#ECF3FF"/>
<rect x="0.5" y="0.5" width="23" height="23" rx="3.5" stroke="#3C6CE7"/>
<path fill-rule="evenodd" clip-rule="evenodd" d="M14.8619 5.52861C15.8587 4.53188 17.4747 4.53189 18.4714 5.52861C19.4681 6.52534 19.4681 8.14136 18.4714 9.13809L9.6672 17.9423C9.65602 17.9534 9.64495 17.9645 9.63396 17.9755C9.4707 18.1391 9.32668 18.2833 9.15557 18.3961C9.00513 18.4954 8.84197 18.5738 8.67053 18.6293C8.47552 18.6924 8.27292 18.7147 8.04323 18.7401C8.02778 18.7418 8.01221 18.7435 7.99651 18.7452L5.74026 18.9959C5.53898 19.0183 5.33844 18.948 5.19524 18.8048C5.05203 18.6616 4.98169 18.461 5.00405 18.2597L5.25475 16.0035C5.25649 15.9878 5.25821 15.9722 5.25991 15.9567C5.28525 15.7271 5.3076 15.5245 5.37072 15.3295C5.42622 15.158 5.50464 14.9949 5.60385 14.8444C5.71668 14.6733 5.86093 14.5293 6.02445 14.366C6.03546 14.355 6.04655 14.344 6.05772 14.3328L14.8619 5.52861ZM17.5286 6.47142C17.0526 5.99539 16.2808 5.99539 15.8047 6.47142L7.00053 15.2756C6.78553 15.4906 6.74561 15.535 6.71695 15.5784C6.68388 15.6286 6.65774 15.683 6.63924 15.7401C6.62321 15.7896 6.6135 15.8485 6.57992 16.1507L6.42126 17.5787L7.84926 17.4201C8.15146 17.3865 8.21034 17.3768 8.25988 17.3608C8.31703 17.3422 8.37141 17.3161 8.42156 17.283C8.46502 17.2544 8.50938 17.2145 8.72439 16.9995L17.5286 8.19528C18.0046 7.71925 18.0046 6.94745 17.5286 6.47142Z" fill="#3C6CE7"/>
</svg>
