<svg width="17" height="18" viewBox="0 0 17 18" fill="none" xmlns="http://www.w3.org/2000/svg">
<path d="M16 9.65833C15.8689 11.0768 15.3366 12.4287 14.4652 13.5557C13.5939 14.6826 12.4196 15.5382 11.0798 16.0221C9.73994 16.5061 8.29 16.5984 6.89959 16.2884C5.50919 15.9784 4.23584 15.2788 3.22853 14.2715C2.22122 13.2642 1.52163 11.9908 1.2116 10.6004C0.901572 9.21001 0.993939 7.76007 1.47789 6.42025C1.96185 5.08042 2.81737 3.90614 3.94435 3.03479C5.07134 2.16345 6.42317 1.63109 7.84168 1.5C7.01119 2.62356 6.61155 4.00787 6.71545 5.40118C6.81935 6.79448 7.41989 8.10422 8.40784 9.09217C9.39579 10.0801 10.7055 10.6807 12.0988 10.7846C13.4921 10.8885 14.8765 10.4888 16 9.65833V9.65833Z" stroke="#0E1726" stroke-width="1.5" stroke-linecap="round" stroke-linejoin="round"/>
</svg>
