<svg width="56" height="56" viewBox="0 0 56 56" fill="none" xmlns="http://www.w3.org/2000/svg">
<path fill-rule="evenodd" clip-rule="evenodd" d="M12.2482 16.6671C14.1475 9.74904 20.4783 4.66666 28 4.66666C35.5217 4.66666 41.8525 9.74904 43.7518 16.6671C49.4342 17.9891 53.6667 23.0825 53.6667 29.1667C53.6667 33.6184 51.398 37.5393 47.9646 39.8375C46.8937 40.5544 45.4445 40.2673 44.7276 39.1965C44.0108 38.1256 44.2978 36.6763 45.3687 35.9595C47.5632 34.4905 49 31.9959 49 29.1667C49 24.9148 45.749 21.4196 41.5988 21.0352C40.5415 20.9373 39.6837 20.138 39.5115 19.0904C38.6017 13.5559 33.7917 9.33332 28 9.33332C22.2083 9.33332 17.3983 13.5559 16.4885 19.0904C16.3163 20.138 15.4584 20.9373 14.4012 21.0352C10.251 21.4196 7 24.9148 7 29.1667C7 31.9959 8.43675 34.4905 10.6313 35.9595C11.7022 36.6763 11.9892 38.1256 11.2723 39.1965C10.5555 40.2673 9.10628 40.5544 8.03539 39.8375C4.60197 37.5393 2.33333 33.6184 2.33333 29.1667C2.33333 23.0825 6.56576 17.9891 12.2482 16.6671ZM25.6667 33.6332L20.3166 38.9832C19.4054 39.8945 17.928 39.8945 17.0167 38.9832C16.1055 38.072 16.1055 36.5946 17.0167 35.6834L26.3501 26.3501C27.2613 25.4389 28.7387 25.4389 29.6499 26.3501L38.9832 35.6834C39.8945 36.5946 39.8945 38.072 38.9832 38.9832C38.072 39.8945 36.5946 39.8945 35.6834 38.9832L30.3333 33.6332V49C30.3333 50.2887 29.2887 51.3333 28 51.3333C26.7113 51.3333 25.6667 50.2887 25.6667 49V33.6332Z" fill="#CFCFCF"/>
</svg>
